# xmcd
#
# Track frame offsets:
#	150
#	11459
#	22685
#	36134
#	47865
#	62192
#	75739
#	87688
#	99632
#	116608
#	130313
#	140660
#	152534
#	166446
#	178988
#	190943
#
# Disc length: 2720 seconds
#
# Revision: 1
# Processed by: cddbd v1.5.2PL0 Copyright (c) Steve Scherf et al.
# Submitted via: audiograbber 1.83.01
#
DISCID=d80a9e10
DTITLE=Conway Twitty - The Late Great
DYEAR=1900
DGENRE=Country
TTITLE0=Hello Darlin'
TTITLE1=It's Only Make Believe
TTITLE2=After allThe Good Is Gone
TTITLE3=To See My Angle Cry
TTITLE4=You've Never Been This Far Before
TTITLE5=The Games That Daddies Play
TTITLE6=(Lying here With) Linda On My Mind
TTITLE7=I'm Not Through Loving You Yet
TTITLE8=Don't Cry Joni
TTITLE9=Baby 's Gone
TTITLE10=(I Can't Believe) She Gives It All To Me
TTITLE11=I Can't See Me Without You
TTITLE12=Fifteen Years Ago
TTITLE13=ThisTime I've Hurt Her More Then She Loves Me
TTITLE14=She Need's Someone To Hold Her (When She Cry's)
TTITLE15=Danny  Boy
EXTD=
EXTT0=
EXTT1=
EXTT2=
EXTT3=
EXTT4=
EXTT5=
EXTT6=
EXTT7=
EXTT8=
EXTT9=
EXTT10=
EXTT11=
EXTT12=
EXTT13=
EXTT14=
EXTT15=
PLAYORDER=
